# xmcd
#
# Track frame offsets:
#	150
#	29609
#	45237
#	55342
#	87266
#	107842
#	127621
#	147939
#
# Disc length: 2320 seconds
# Revision: 0
# Processed by: cddbd v1.5.2PL0 Copyright (c) Steve Scherf et al.
# Submitted via: dBpowerAMP V12.0
#
DISCID=62090e08
DTITLE=Hot Tuna - Double Dose
DYEAR=1978
DGENRE=Blues
TTITLE0=Winin' Boy Blues
TTITLE1=Keep Your Lamps Trimmed and Burning
TTITLE2=Embryonic Journey
TTITLE3=Killing Time in a Crystal City
TTITLE4=I Wish You Would
TTITLE5=Genesis
TTITLE6=Extrication Love Song
TTITLE7=Talking 'bout You
EXTD=
EXTT0=
EXTT1=
EXTT2=
EXTT3=
EXTT4=
EXTT5=
EXTT6=
EXTT7=
PLAYORDER=
